/* XPM */
static char *_b7b07df526144479933280048e7ac9eha9sZ3Iu5XfZIrpt[] = {
/* columns rows colors chars-per-pixel */
"45 45 60 1 ",
"  c #FD0000",
". c #FD0505",
"X c #FD0606",
"o c #FD090A",
"O c #FD0C0D",
"+ c #FD1313",
"@ c #FD1413",
"# c #FD1414",
"$ c #FD1D1D",
"% c #FD2121",
"& c #FE2424",
"* c #FD2B2B",
"= c #FD2C2C",
"- c #FD3030",
"; c #FD3737",
": c #FD3838",
"> c #FD3F3F",
", c #FD4A4A",
"< c #FD4F4F",
"1 c #FD5050",
"2 c #FD5959",
"3 c #FD5D5D",
"4 c #FD6767",
"5 c #FD6A69",
"6 c #FE7979",
"7 c #FD7F7F",
"8 c #FD8686",
"9 c #FD9696",
"0 c #FD9F9F",
"q c #FD9FA0",
"w c #FEA2A2",
"e c #FEA6A6",
"r c #FDABAB",
"t c #FDACAC",
"y c #FEB4B4",
"u c #FEB6B5",
"i c #FEBABA",
"p c #FEBBBC",
"a c #FEBDBD",
"s c #FEC2C2",
"d c #FEC4C3",
"f c #FEC4C4",
"g c #FEC9C9",
"h c #FECCCC",
"j c #FECFD0",
"k c #FED3D3",
"l c #FED4D3",
"z c #FED4D4",
"x c #FED8D7",
"c c #FEDBDB",
"v c #FEDDDD",
"b c #FEE0E0",
"n c #FEEAEA",
"m c #FEECEB",
"M c #FEECEC",
"N c #FEF2F2",
"B c #FFF7F7",
"V c #FEF8F8",
"C c #FEFAFA",
"Z c white",
/* pixels */
"ZZZZZZZZZZZZZZZZZZZZZZZZZZZZZZZZZZZZZZZZZZZZZ",
"ZZZZZZZZZZZZZZZZZZZZZZZZZZZZZZZZZZZZZZZZZZZZZ",
"ZZZZZZZZZZZZZZZZZZZZZZZZZZZZZZZZZZZZZZZZZZZZZ",
"ZZZZZZZZZZZZZZZZZZZZZZZZZZZZZZZZZZZZZZZZZZZZZ",
"ZZZZZZZZZZZZZZZZZZZZZZZZZZZZZZZZZZZZZZZZZZZZZ",
"ZZZZZZZZZZZZZZZZZZZZZZZZZZZZZZZZZZZZZZZZZZZZZ",
"ZZZZZZZZZZZZZZZZZZZZZZZZZZZZZZZZZZZZZZZZZZZZZ",
"ZZZZZZZZZZZZZZZZZZu5;#o#;5uZZZZZZZZZZZZZZZZZZ",
"ZZZZZZZZZZZZZZZM<           <MZZZZZZZZZZZZZZZ",
"ZZZZZZZZZZZZZZ2    ;69r96;    2ZZZZZZZZZZZZZZ",
"ZZZZZZZZZZZZm   +tZZZZZZZZZr+   MZZZZZZZZZZZZ",
"ZZZZZZZZZZZz   0ZZZZZZZZZZZZZw   zZZZZZZZZZZZ",
"ZZZZZZZZZZM   CZZZZZZZZZZZZZZZC   MZZZZZZZZZZ",
"ZZZZZZZZZZ   ZZZZZZZZZZZZZZZZZZZ   ZZZZZZZZZZ",
"ZZZZZZZZZ2  CZZZZZZZZZZZZZZZZZZZC  2ZZZZZZZZZ",
"ZZZZZZZZM  wZZZZZZZZZZZZZZZZZZZZZw  MZZZZZZZZ",
"ZZZZZZZZ1 @ZZZZZ9 kZZZZZZZk 9ZZZZZ+ 1ZZZZZZZZ",
"ZZZZZZZZ  tZZZZ0   zZZZZZz   qZZZZt  ZZZZZZZZ",
"ZZZZZZZu  ZZZZZn    zZZZz    MZZZZZ  uZZZZZZZ",
"ZZZZZZZ4 >ZZZZZZC    zZz    CZZZZZZ> 4ZZZZZZZ",
"ZZZZZZZ= 7ZZZZZZZB    e    CZZZZZZZ7 -ZZZZZZZ",
"ZZZZZZZ+ wZZZZZZZZB       CZZZZZZZZ0 +ZZZZZZZ",
"ZZZZZZZ. rZZZZZZZZZZ.   .ZZZZZZZZZZr .ZZZZZZZ",
"ZZZZZZZO wZZZZZZZZZb     bZZZZZZZZZw OZZZZZZZ",
"ZZZZZZZ* 8ZZZZZZZZc       cZZZZZZZZ8 *ZZZZZZZ",
"ZZZZZZZ2 ,ZZZZZZZc    z    cZZZZZZZ, 3ZZZZZZZ",
"ZZZZZZZe  ZZZZZZv    BZB    vZZZZZZ  eZZZZZZZ",
"ZZZZZZZZ  dZZZZj    BZZZB    kZZZZs  ZZZZZZZZ",
"ZZZZZZZZ: =ZZZZi   BZZZZZN   pZZZZ* :ZZZZZZZZ",
"ZZZZZZZZz  fZZZZa MZZZZZZZM aZZZZs  cZZZZZZZZ",
"ZZZZZZZZZ:  ZZZZZZZZZZZZZZZZZZZZZ  ;ZZZZZZZZZ",
"ZZZZZZZZZZ  $ZZZZZZZZZZZZZZZZZZZ$  ZZZZZZZZZZ",
"ZZZZZZZZZZg  %ZZZZZZZZZZZZZZZZZ$  gZZZZZZZZZZ",
"ZZZZZZZZZZZt   lZZZZZZZZZZZZZk   uZZZZZZZZZZZ",
"ZZZZZZZZZZZZs   >bZZZZZZZZZv>   sZZZZZZZZZZZZ",
"ZZZZZZZZZZZZZZ%   O5egxhw5O   &ZZZZZZZZZZZZZZ",
"ZZZZZZZZZZZZZZZa$           $aZZZZZZZZZZZZZZZ",
"ZZZZZZZZZZZZZZZZZn8:.   .:8MZZZZZZZZZZZZZZZZZ",
"ZZZZZZZZZZZZZZZZZZZZZZZZZZZZZZZZZZZZZZZZZZZZZ",
"ZZZZZZZZZZZZZZZZZZZZZZZZZZZZZZZZZZZZZZZZZZZZZ",
"ZZZZZZZZZZZZZZZZZZZZZZZZZZZZZZZZZZZZZZZZZZZZZ",
"ZZZZZZZZZZZZZZZZZZZZZZZZZZZZZZZZZZZZZZZZZZZZZ",
"ZZZZZZZZZZZZZZZZZZZZZZZZZZZZZZZZZZZZZZZZZZZZZ",
"ZZZZZZZZZZZZZZZZZZZZZZZZZZZZZZZZZZZZZZZZZZZZZ",
"ZZZZZZZZZZZZZZZZZZZZZZZZZZZZZZZZZZZZZZZZZZZZZ"
};
